# xmcd CD database file
#
# Track frame offsets:
#	150
#	33079
#	58268
#	85092
#	113659
#	135072
#	161467
#	197158
#	216910
#	242230
#	267195
#
# Disc length: 3955 seconds
#
# Revision: 0
# Processed by: cddbd v1.5.2PL0 Copyright (c) Steve Scherf et al.
# Submitted via: CDex 2.06
#
DISCID=8e0f710b
DTITLE=Bill Anschell - Rumbler
DYEAR=2017
DGENRE=Jazz
TTITLE0=Misterioso
TTITLE1=Dark Wind
TTITLE2=Captive Light
TTITLE3=MBK
TTITLE4=No You Go
TTITLE5=For No One
TTITLE6=Rumbler
TTITLE7=39F 
TTITLE8=Heisenberg's Fugue State
TTITLE9=The Dreaded E Word
TTITLE10=Reflections in D
EXTD=YEAR: 2017
EXTT0=
EXTT1=
EXTT2=
EXTT3=
EXTT4=
EXTT5=
EXTT6=
EXTT7=
EXTT8=
EXTT9=
EXTT10=
PLAYORDER=
